<?xml version="1.0" encoding="utf-8"?>
<svg viewBox="224 248 219 69" xmlns="http://www.w3.org/2000/svg">
  <path d="M 248.392 268.87 L 252.312 268.87 L 252.312 288.41 L 248.392 288.41 L 248.392 280.09 L 240.022 280.09 L 240.022 288.41 L 236.102 288.41 L 236.102 268.87 L 240.022 268.87 L 240.022 276.9 L 248.392 276.9 L 248.392 268.87 ZM 270.598 280.32 C 270.598 280.88 270.561 281.383 270.488 281.83 L 259.148 281.83 C 259.241 282.95 259.635 283.827 260.328 284.46 C 261.015 285.093 261.861 285.41 262.868 285.41 C 264.328 285.41 265.365 284.787 265.978 283.54 L 270.208 283.54 C 269.761 285.033 268.901 286.26 267.628 287.22 C 266.361 288.18 264.805 288.66 262.958 288.66 C 261.465 288.66 260.125 288.33 258.938 287.67 C 257.751 287.003 256.828 286.063 256.168 284.85 C 255.501 283.637 255.168 282.237 255.168 280.65 C 255.168 279.05 255.495 277.643 256.148 276.43 C 256.801 275.217 257.718 274.283 258.898 273.63 C 260.071 272.977 261.425 272.65 262.958 272.65 C 264.431 272.65 265.751 272.967 266.918 273.6 C 268.085 274.233 268.991 275.133 269.638 276.3 C 270.278 277.467 270.598 278.807 270.598 280.32 Z M 259.178 279.2 L 266.538 279.2 C 266.518 278.193 266.155 277.387 265.448 276.78 C 264.741 276.173 263.875 275.87 262.848 275.87 C 261.875 275.87 261.058 276.163 260.398 276.75 C 259.731 277.337 259.325 278.153 259.178 279.2 ZM 272.444 280.6 C 272.444 279.033 272.757 277.643 273.384 276.43 C 274.011 275.217 274.861 274.283 275.934 273.63 C 277.007 272.977 278.207 272.65 279.534 272.65 C 280.687 272.65 281.701 272.883 282.574 273.35 C 283.441 273.817 284.134 274.403 284.654 275.11 L 284.654 272.9 L 288.604 272.9 L 288.604 288.41 L 284.654 288.41 L 284.654 286.14 C 284.154 286.867 283.461 287.47 282.574 287.95 C 281.687 288.423 280.664 288.66 279.504 288.66 C 278.197 288.66 277.007 288.323 275.934 287.65 C 274.861 286.983 274.011 286.037 273.384 284.81 C 272.757 283.59 272.444 282.187 272.444 280.6 Z M 284.654 280.65 C 284.654 279.703 284.467 278.887 284.094 278.2 C 283.721 277.52 283.217 277 282.584 276.64 C 281.951 276.273 281.271 276.09 280.544 276.09 C 279.811 276.09 279.137 276.267 278.524 276.62 C 277.911 276.973 277.411 277.493 277.024 278.18 C 276.644 278.86 276.454 279.667 276.454 280.6 C 276.454 281.533 276.644 282.35 277.024 283.05 C 277.411 283.75 277.914 284.287 278.534 284.66 C 279.161 285.033 279.831 285.22 280.544 285.22 C 281.271 285.22 281.951 285.037 282.584 284.67 C 283.217 284.31 283.721 283.787 284.094 283.1 C 284.467 282.42 284.654 281.603 284.654 280.65 ZM 292.438 267.69 L 296.358 267.69 L 296.358 288.41 L 292.438 288.41 L 292.438 267.69 ZM 308.262 276.12 L 304.792 276.12 L 304.792 283.62 C 304.792 284.147 304.915 284.527 305.162 284.76 C 305.415 284.993 305.842 285.11 306.442 285.11 L 308.262 285.11 L 308.262 288.41 L 305.792 288.41 C 302.492 288.41 300.842 286.803 300.842 283.59 L 300.842 276.12 L 298.992 276.12 L 298.992 272.9 L 300.842 272.9 L 300.842 269.06 L 304.792 269.06 L 304.792 272.9 L 308.262 272.9 L 308.262 276.12 ZM 319.826 272.67 C 320.999 272.67 322.043 272.927 322.956 273.44 C 323.876 273.953 324.593 274.71 325.106 275.71 C 325.619 276.71 325.876 277.91 325.876 279.31 L 325.876 288.41 L 321.956 288.41 L 321.956 279.84 C 321.956 278.607 321.646 277.66 321.026 277 C 320.413 276.34 319.573 276.01 318.506 276.01 C 317.426 276.01 316.573 276.34 315.946 277 C 315.319 277.66 315.006 278.607 315.006 279.84 L 315.006 288.41 L 311.086 288.41 L 311.086 267.69 L 315.006 267.69 L 315.006 274.83 C 315.513 274.157 316.186 273.63 317.026 273.25 C 317.866 272.863 318.799 272.67 319.826 272.67 ZM 340.264 272.9 L 344.434 272.9 L 334.834 295.75 L 330.664 295.75 L 334.024 288.02 L 327.804 272.9 L 332.204 272.9 L 336.204 283.73 L 340.264 272.9 ZM 353.198 268.87 L 365.268 268.87 L 365.268 272.03 L 357.118 272.03 L 357.118 277.04 L 363.368 277.04 L 363.368 280.15 L 357.118 280.15 L 357.118 288.41 L 353.198 288.41 L 353.198 268.87 ZM 374.928 288.66 C 373.435 288.66 372.091 288.33 370.898 287.67 C 369.705 287.003 368.765 286.063 368.078 284.85 C 367.398 283.637 367.058 282.237 367.058 280.65 C 367.058 279.063 367.408 277.663 368.108 276.45 C 368.808 275.237 369.765 274.3 370.978 273.64 C 372.191 272.98 373.545 272.65 375.038 272.65 C 376.531 272.65 377.885 272.98 379.098 273.64 C 380.311 274.3 381.268 275.237 381.968 276.45 C 382.668 277.663 383.018 279.063 383.018 280.65 C 383.018 282.237 382.658 283.637 381.938 284.85 C 381.225 286.063 380.255 287.003 379.028 287.67 C 377.808 288.33 376.441 288.66 374.928 288.66 Z M 374.928 285.25 C 375.635 285.25 376.301 285.077 376.928 284.73 C 377.555 284.383 378.055 283.863 378.428 283.17 C 378.801 282.483 378.988 281.643 378.988 280.65 C 378.988 279.177 378.601 278.043 377.828 277.25 C 377.055 276.457 376.108 276.06 374.988 276.06 C 373.868 276.06 372.928 276.457 372.168 277.25 C 371.415 278.043 371.038 279.177 371.038 280.65 C 371.038 282.13 371.405 283.267 372.138 284.06 C 372.878 284.853 373.808 285.25 374.928 285.25 ZM 392.792 288.66 C 391.299 288.66 389.955 288.33 388.762 287.67 C 387.569 287.003 386.629 286.063 385.942 284.85 C 385.262 283.637 384.922 282.237 384.922 280.65 C 384.922 279.063 385.272 277.663 385.972 276.45 C 386.672 275.237 387.629 274.3 388.842 273.64 C 390.055 272.98 391.409 272.65 392.902 272.65 C 394.395 272.65 395.749 272.98 396.962 273.64 C 398.175 274.3 399.132 275.237 399.832 276.45 C 400.532 277.663 400.882 279.063 400.882 280.65 C 400.882 282.237 400.522 283.637 399.802 284.85 C 399.089 286.063 398.119 287.003 396.892 287.67 C 395.672 288.33 394.305 288.66 392.792 288.66 Z M 392.792 285.25 C 393.499 285.25 394.165 285.077 394.792 284.73 C 395.419 284.383 395.919 283.863 396.292 283.17 C 396.665 282.483 396.852 281.643 396.852 280.65 C 396.852 279.177 396.465 278.043 395.692 277.25 C 394.919 276.457 393.972 276.06 392.852 276.06 C 391.732 276.06 390.792 276.457 390.032 277.25 C 389.279 278.043 388.902 279.177 388.902 280.65 C 388.902 282.13 389.269 283.267 390.002 284.06 C 390.742 284.853 391.672 285.25 392.792 285.25 ZM 402.756 280.6 C 402.756 279.033 403.069 277.643 403.696 276.43 C 404.323 275.217 405.176 274.283 406.256 273.63 C 407.343 272.977 408.549 272.65 409.876 272.65 C 410.883 272.65 411.843 272.867 412.756 273.3 C 413.669 273.74 414.396 274.323 414.936 275.05 L 414.936 267.69 L 418.916 267.69 L 418.916 288.41 L 414.936 288.41 L 414.936 286.11 C 414.456 286.877 413.776 287.493 412.896 287.96 C 412.016 288.427 410.999 288.66 409.846 288.66 C 408.539 288.66 407.343 288.323 406.256 287.65 C 405.176 286.983 404.323 286.037 403.696 284.81 C 403.069 283.59 402.756 282.187 402.756 280.6 Z M 414.966 280.65 C 414.966 279.703 414.779 278.887 414.406 278.2 C 414.033 277.52 413.529 277 412.896 276.64 C 412.263 276.273 411.583 276.09 410.856 276.09 C 410.123 276.09 409.449 276.267 408.836 276.62 C 408.223 276.973 407.723 277.493 407.336 278.18 C 406.956 278.86 406.766 279.667 406.766 280.6 C 406.766 281.533 406.956 282.35 407.336 283.05 C 407.723 283.75 408.226 284.287 408.846 284.66 C 409.473 285.033 410.143 285.22 410.856 285.22 C 411.583 285.22 412.263 285.037 412.896 284.67 C 413.529 284.31 414.033 283.787 414.406 283.1 C 414.779 282.42 414.966 281.603 414.966 280.65 Z" transform="matrix(1, 0, 0, 1, 0, 0)" style="fill: rgb(186, 220, 88); paint-order: fill; white-space: pre;"/>
</svg>